<svg width="134" height="51" viewBox="0 0 134 51" fill="none" xmlns="http://www.w3.org/2000/svg">
<path d="M25.6491 10.176H29.3931C30.1504 10.176 30.7637 9.984 31.2331 9.6C31.7024 9.216 31.9371 8.62933 31.9371 7.84C31.9371 7.05067 31.7024 6.464 31.2331 6.08C30.7637 5.696 30.1504 5.504 29.3931 5.504H25.6491V10.176ZM24.5611 4.576H29.6331C30.1451 4.576 30.6091 4.65067 31.0251 4.8C31.4411 4.93867 31.7984 5.152 32.0971 5.44C32.3957 5.71733 32.6251 6.05867 32.7851 6.464C32.9451 6.86933 33.0251 7.328 33.0251 7.84C33.0251 8.352 32.9451 8.81067 32.7851 9.216C32.6251 9.62133 32.3957 9.968 32.0971 10.256C31.7984 10.5333 31.4411 10.7467 31.0251 10.896C30.6091 11.0347 30.1451 11.104 29.6331 11.104H25.6491V16H24.5611V4.576ZM38.5752 8.352C38.0952 8.352 37.6739 8.45333 37.3112 8.656C36.9485 8.85867 36.6445 9.12533 36.3992 9.456C36.1645 9.78667 35.9832 10.1653 35.8552 10.592C35.7379 11.008 35.6792 11.4347 35.6792 11.872C35.6792 12.3093 35.7379 12.7413 35.8552 13.168C35.9832 13.584 36.1645 13.9573 36.3992 14.288C36.6445 14.6187 36.9485 14.8853 37.3112 15.088C37.6739 15.2907 38.0952 15.392 38.5752 15.392C39.0552 15.392 39.4765 15.2907 39.8392 15.088C40.2019 14.8853 40.5005 14.6187 40.7352 14.288C40.9805 13.9573 41.1619 13.584 41.2792 13.168C41.4072 12.7413 41.4712 12.3093 41.4712 11.872C41.4712 11.4347 41.4072 11.008 41.2792 10.592C41.1619 10.1653 40.9805 9.78667 40.7352 9.456C40.5005 9.12533 40.2019 8.85867 39.8392 8.656C39.4765 8.45333 39.0552 8.352 38.5752 8.352ZM38.5752 7.504C39.2045 7.504 39.7592 7.62133 40.2392 7.856C40.7299 8.09067 41.1405 8.40533 41.4712 8.8C41.8019 9.19467 42.0525 9.65867 42.2232 10.192C42.3939 10.7147 42.4792 11.2747 42.4792 11.872C42.4792 12.4693 42.3939 13.0347 42.2232 13.568C42.0525 14.0907 41.8019 14.5493 41.4712 14.944C41.1405 15.3387 40.7299 15.6533 40.2392 15.888C39.7592 16.112 39.2045 16.224 38.5752 16.224C37.9459 16.224 37.3859 16.112 36.8952 15.888C36.4152 15.6533 36.0099 15.3387 35.6792 14.944C35.3485 14.5493 35.0979 14.0907 34.9272 13.568C34.7565 13.0347 34.6712 12.4693 34.6712 11.872C34.6712 11.2747 34.7565 10.7147 34.9272 10.192C35.0979 9.65867 35.3485 9.19467 35.6792 8.8C36.0099 8.40533 36.4152 8.09067 36.8952 7.856C37.3859 7.62133 37.9459 7.504 38.5752 7.504ZM43.7858 7.744H44.8578L46.9698 14.816H47.0018L49.0178 7.744H50.1538L52.1698 14.816H52.2018L54.3138 7.744H55.3858L52.7298 16H51.6258L49.5938 9.056H49.5618L47.5458 16H46.4418L43.7858 7.744ZM63.0532 11.296C63.0425 10.912 62.9732 10.544 62.8452 10.192C62.7279 9.84 62.5572 9.53067 62.3332 9.264C62.1092 8.98667 61.8372 8.768 61.5172 8.608C61.1972 8.43733 60.8345 8.352 60.4292 8.352C60.0132 8.352 59.6452 8.43733 59.3252 8.608C59.0052 8.768 58.7332 8.98667 58.5092 9.264C58.2852 9.53067 58.1039 9.84533 57.9652 10.208C57.8372 10.56 57.7519 10.9227 57.7092 11.296H63.0532ZM57.7092 12.144C57.7092 12.5067 57.7572 12.8853 57.8532 13.28C57.9599 13.664 58.1252 14.0107 58.3492 14.32C58.5732 14.6293 58.8559 14.8853 59.1972 15.088C59.5385 15.2907 59.9492 15.392 60.4292 15.392C61.1652 15.392 61.7412 15.2 62.1572 14.816C62.5732 14.432 62.8612 13.92 63.0212 13.28H64.0292C63.8159 14.2187 63.4212 14.944 62.8452 15.456C62.2799 15.968 61.4745 16.224 60.4292 16.224C59.7785 16.224 59.2132 16.112 58.7332 15.888C58.2639 15.6533 57.8799 15.3387 57.5812 14.944C57.2825 14.5387 57.0585 14.0747 56.9092 13.552C56.7705 13.0187 56.7012 12.4587 56.7012 11.872C56.7012 11.328 56.7705 10.7947 56.9092 10.272C57.0585 9.74933 57.2825 9.28533 57.5812 8.88C57.8799 8.464 58.2639 8.13333 58.7332 7.888C59.2132 7.632 59.7785 7.504 60.4292 7.504C61.0905 7.504 61.6559 7.63733 62.1252 7.904C62.5945 8.17067 62.9732 8.52267 63.2612 8.96C63.5599 9.38667 63.7732 9.88267 63.9012 10.448C64.0292 11.0027 64.0825 11.568 64.0612 12.144H57.7092ZM66.0541 7.744H66.9821V9.68H67.0141C67.2701 9.008 67.6647 8.49067 68.1981 8.128C68.7421 7.76533 69.3874 7.6 70.1341 7.632V8.64C69.6754 8.61867 69.2594 8.68267 68.8861 8.832C68.5127 8.97067 68.1874 9.17333 67.9101 9.44C67.6434 9.70667 67.4354 10.0267 67.2861 10.4C67.1367 10.7627 67.0621 11.1627 67.0621 11.6V16H66.0541V7.744ZM77.3957 11.296C77.385 10.912 77.3157 10.544 77.1877 10.192C77.0704 9.84 76.8997 9.53067 76.6757 9.264C76.4517 8.98667 76.1797 8.768 75.8597 8.608C75.5397 8.43733 75.177 8.352 74.7717 8.352C74.3557 8.352 73.9877 8.43733 73.6677 8.608C73.3477 8.768 73.0757 8.98667 72.8517 9.264C72.6277 9.53067 72.4464 9.84533 72.3077 10.208C72.1797 10.56 72.0944 10.9227 72.0517 11.296H77.3957ZM72.0517 12.144C72.0517 12.5067 72.0997 12.8853 72.1957 13.28C72.3024 13.664 72.4677 14.0107 72.6917 14.32C72.9157 14.6293 73.1984 14.8853 73.5397 15.088C73.881 15.2907 74.2917 15.392 74.7717 15.392C75.5077 15.392 76.0837 15.2 76.4997 14.816C76.9157 14.432 77.2037 13.92 77.3637 13.28H78.3717C78.1584 14.2187 77.7637 14.944 77.1877 15.456C76.6224 15.968 75.817 16.224 74.7717 16.224C74.121 16.224 73.5557 16.112 73.0757 15.888C72.6064 15.6533 72.2224 15.3387 71.9237 14.944C71.625 14.5387 71.401 14.0747 71.2517 13.552C71.113 13.0187 71.0437 12.4587 71.0437 11.872C71.0437 11.328 71.113 10.7947 71.2517 10.272C71.401 9.74933 71.625 9.28533 71.9237 8.88C72.2224 8.464 72.6064 8.13333 73.0757 7.888C73.5557 7.632 74.121 7.504 74.7717 7.504C75.433 7.504 75.9984 7.63733 76.4677 7.904C76.937 8.17067 77.3157 8.52267 77.6037 8.96C77.9024 9.38667 78.1157 9.88267 78.2437 10.448C78.3717 11.0027 78.425 11.568 78.4037 12.144H72.0517ZM87.6606 16H86.7326V14.432H86.7006C86.5939 14.6987 86.4339 14.944 86.2206 15.168C86.0179 15.392 85.7832 15.584 85.5166 15.744C85.2499 15.8933 84.9619 16.0107 84.6526 16.096C84.3539 16.1813 84.0552 16.224 83.7566 16.224C83.1272 16.224 82.5779 16.112 82.1086 15.888C81.6499 15.6533 81.2659 15.3387 80.9566 14.944C80.6472 14.5387 80.4179 14.0747 80.2686 13.552C80.1192 13.0187 80.0446 12.4587 80.0446 11.872C80.0446 11.2853 80.1192 10.7307 80.2686 10.208C80.4179 9.67467 80.6472 9.21067 80.9566 8.816C81.2659 8.41067 81.6499 8.09067 82.1086 7.856C82.5779 7.62133 83.1272 7.504 83.7566 7.504C84.0659 7.504 84.3646 7.54133 84.6526 7.616C84.9512 7.69067 85.2286 7.808 85.4846 7.968C85.7406 8.11733 85.9646 8.304 86.1566 8.528C86.3592 8.752 86.5139 9.01333 86.6206 9.312H86.6526V4.576H87.6606V16ZM81.0526 11.872C81.0526 12.2987 81.1006 12.7253 81.1966 13.152C81.3032 13.568 81.4632 13.9413 81.6766 14.272C81.9006 14.6027 82.1832 14.8747 82.5246 15.088C82.8659 15.2907 83.2766 15.392 83.7566 15.392C84.2899 15.392 84.7379 15.2907 85.1006 15.088C85.4739 14.8747 85.7726 14.6027 85.9966 14.272C86.2312 13.9413 86.3966 13.568 86.4926 13.152C86.5992 12.7253 86.6526 12.2987 86.6526 11.872C86.6526 11.4453 86.5992 11.024 86.4926 10.608C86.3966 10.1813 86.2312 9.80267 85.9966 9.472C85.7726 9.14133 85.4739 8.87467 85.1006 8.672C84.7379 8.45867 84.2899 8.352 83.7566 8.352C83.2766 8.352 82.8659 8.45867 82.5246 8.672C82.1832 8.87467 81.9006 9.14133 81.6766 9.472C81.4632 9.80267 81.3032 10.1813 81.1966 10.608C81.1006 11.024 81.0526 11.4453 81.0526 11.872ZM95.3172 4.576H96.3252V9.312H96.3572C96.4639 9.01333 96.6132 8.752 96.8052 8.528C97.0079 8.304 97.2372 8.11733 97.4932 7.968C97.7492 7.808 98.0265 7.69067 98.3252 7.616C98.6239 7.54133 98.9225 7.504 99.2212 7.504C99.8505 7.504 100.395 7.62133 100.853 7.856C101.323 8.09067 101.712 8.41067 102.021 8.816C102.331 9.21067 102.56 9.67467 102.709 10.208C102.859 10.7307 102.933 11.2853 102.933 11.872C102.933 12.4587 102.859 13.0187 102.709 13.552C102.56 14.0747 102.331 14.5387 102.021 14.944C101.712 15.3387 101.323 15.6533 100.853 15.888C100.395 16.112 99.8505 16.224 99.2212 16.224C98.5492 16.224 97.9465 16.0693 97.4132 15.76C96.8905 15.4507 96.5119 15.008 96.2772 14.432H96.2452V16H95.3172V4.576ZM101.925 11.872C101.925 11.4453 101.872 11.024 101.765 10.608C101.669 10.1813 101.509 9.80267 101.285 9.472C101.072 9.14133 100.795 8.87467 100.453 8.672C100.112 8.45867 99.7012 8.352 99.2212 8.352C98.6879 8.352 98.2345 8.45867 97.8612 8.672C97.4985 8.87467 97.1999 9.14133 96.9652 9.472C96.7412 9.80267 96.5759 10.1813 96.4692 10.608C96.3732 11.024 96.3252 11.4453 96.3252 11.872C96.3252 12.2987 96.3732 12.7253 96.4692 13.152C96.5759 13.568 96.7412 13.9413 96.9652 14.272C97.1999 14.6027 97.4985 14.8747 97.8612 15.088C98.2345 15.2907 98.6879 15.392 99.2212 15.392C99.7012 15.392 100.112 15.2907 100.453 15.088C100.795 14.8747 101.072 14.6027 101.285 14.272C101.509 13.9413 101.669 13.568 101.765 13.152C101.872 12.7253 101.925 12.2987 101.925 11.872ZM104.217 7.744H105.289L108.009 14.784L110.553 7.744H111.561L107.977 17.248C107.827 17.6 107.689 17.888 107.561 18.112C107.433 18.3467 107.289 18.528 107.129 18.656C106.979 18.7947 106.798 18.8907 106.585 18.944C106.382 19.008 106.121 19.04 105.801 19.04C105.598 19.0293 105.438 19.0187 105.321 19.008C105.214 19.008 105.118 18.992 105.033 18.96V18.112C105.15 18.1333 105.262 18.1493 105.369 18.16C105.486 18.1813 105.603 18.192 105.721 18.192C105.945 18.192 106.126 18.16 106.265 18.096C106.414 18.032 106.542 17.9413 106.649 17.824C106.755 17.7173 106.846 17.584 106.921 17.424C106.995 17.264 107.075 17.088 107.161 16.896L107.513 15.968L104.217 7.744Z" fill="#C8C8C8"/>
<g clip-path="url(#clip0_437_25771)">
<path d="M10.1986 36.4656C8.27378 35.5568 6.69356 34.823 6.69356 33.3414C6.69356 32.204 7.59294 31.3799 9.3721 31.3799C10.0277 31.3799 10.5629 31.459 11.112 31.5606C11.4006 31.6085 11.7088 31.6537 11.9666 31.6537C13.5216 31.6537 14.3986 30.7196 14.9842 28.9472L15.2251 28.2247C14.9729 28.1231 12.4373 26.9971 9.12274 26.9971C3.85531 26.9999 1.0759 30.4006 1.0759 33.934C1.0759 35.7177 1.62786 37.0074 2.49642 38.0234C3.61155 39.3301 5.20299 40.188 6.69356 40.919C8.86497 41.9914 10.8234 42.7845 10.8234 44.3734C10.8262 45.7873 9.3777 46.586 7.44444 46.586C4.79112 46.586 2.47401 45.0592 2.17982 44.8757L0 48.9848C0.386652 49.205 3.19408 50.9971 7.80868 50.9971C12.7259 50.9942 16.4467 48.1579 16.4467 43.7863C16.4467 39.4148 12.9977 37.8287 10.1986 36.4627V36.4656Z" fill="#C8C8C8"/>
<path d="M29.4331 38.4976L38.3542 27.4825H31.9996L24.883 36.9877H24.7737V27.4825H19.5371V50.8165H19.8509C22.1148 50.8165 24.8129 49.761 24.8129 45.951V40.5917H24.9166L32.1705 50.5258H38.8361L29.4331 38.4948V38.4976Z" fill="#C8C8C8"/>
<path d="M129.777 37.62C127.02 37.62 125.606 39.446 125.384 39.7254C124.689 38.4017 123.409 37.62 121.731 37.62C119.299 37.62 117.923 39.0396 117.696 39.2682C117.595 38.8872 117.099 37.8514 115.533 37.8514C115.079 37.8514 114.418 37.9982 114.362 38.0095C114.426 38.3086 114.723 39.7536 114.723 41.7461V50.5287H117.915V41.5739C117.979 41.5175 119.173 40.3011 120.607 40.3011C122.042 40.3011 122.759 41.382 122.759 42.8552V50.5287H125.961V41.5711C126.026 41.509 127.197 40.3011 128.654 40.3011C130.111 40.3011 130.783 41.382 130.783 42.8552V50.5287H134V42.3556C134 39.4855 132.375 37.62 129.78 37.62H129.777Z" fill="#C8C8C8"/>
<path d="M94.78 48.206C92.6142 48.206 91.0648 46.4788 91.0648 44.2239C91.0648 41.7121 92.8243 40.2135 94.78 40.2135C95.8335 40.2135 96.2762 40.5381 96.9766 40.5381C97.7247 40.5381 98.1198 40.174 98.4896 39.4515C98.6913 39.0508 98.8118 38.8194 98.8118 38.8194C98.6549 38.7178 97.0355 37.6115 94.2953 37.6115C90.2719 37.6115 87.8623 40.5155 87.8623 44.2239C87.8623 48.2681 90.6165 50.8081 94.2953 50.8081C96.9598 50.8081 98.5765 49.713 98.8623 49.507L97.7555 47.3057C97.509 47.4638 96.3686 48.206 94.78 48.206Z" fill="#C8C8C8"/>
<path d="M57.314 42.8185C57.314 41.3735 58.3198 40.0358 59.7292 40.0358C61.3066 40.0358 62.1751 41.4159 62.2004 42.8185H57.314ZM59.7768 37.62C56.72 37.62 54.1367 40.1261 54.1367 44.2296C54.1367 48.3331 56.6387 50.811 60.3792 50.811C63.3491 50.811 64.8929 49.5043 65.0778 49.3829C65.0778 49.3829 64.7864 48.906 64.708 48.7762C64.2877 48.0875 63.8142 47.8674 63.2875 47.8674C62.2368 47.8674 62.1023 48.3048 60.6762 48.3048C58.2274 48.3048 57.384 46.3829 57.3224 45.1017H65.5149V44.1449C65.5149 40.208 63.2651 37.62 59.7768 37.62Z" fill="#C8C8C8"/>
<path d="M70.9758 46.9727V33.8212C70.9758 32.3367 69.9924 31.1881 68.4654 31.1881H67.7817V48.2653C67.7817 49.8372 68.7456 50.8109 70.4267 50.8109C72.5028 50.8109 73.122 49.3264 73.122 47.9294C73.0352 47.9774 72.5953 48.158 72.1526 48.158C71.4129 48.158 70.9758 47.7262 70.9758 46.9755V46.9727Z" fill="#C8C8C8"/>
<path d="M49.626 46.5268V40.2756H52.2933L53.2235 37.8541H49.626V34.0724C49.626 34.0724 49.3402 34.0724 49.329 34.0724C47.9084 34.0724 46.4347 34.682 46.4347 37.8259V37.8541H44.0728V40.2756H46.4347V47.6387C46.4347 49.7271 47.6563 50.8109 49.3962 50.8109C50.8027 50.8109 52.6127 50.3819 52.6127 47.5794C52.5034 47.6444 51.8254 48.0874 51.0773 48.0874C50.0378 48.0874 49.626 47.4496 49.626 46.5268Z" fill="#C8C8C8"/>
<path d="M77.3473 42.8185C77.3473 41.3735 78.3504 40.0358 79.7597 40.0358C81.3371 40.0358 82.2057 41.4159 82.2309 42.8185H77.3473ZM79.8073 37.62C76.7505 37.62 74.1729 40.1261 74.1729 44.2296C74.1729 48.3331 76.6749 50.811 80.4153 50.811C83.3852 50.811 84.9206 49.5043 85.1112 49.3829C85.1112 49.3829 84.8226 48.906 84.7413 48.7762C84.3239 48.0875 83.8475 47.8674 83.3208 47.8674C82.2673 47.8674 82.1356 48.3048 80.7067 48.3048C78.2607 48.3048 77.4118 46.3829 77.3557 45.1017H85.5426V44.1449C85.5426 40.208 83.2928 37.62 79.8045 37.62" fill="#C8C8C8"/>
<path d="M106.178 48.3358C108.136 48.3358 109.265 46.6397 109.265 44.221C109.265 41.8024 108.164 40.0893 106.178 40.0893C104.191 40.0893 103.096 41.7714 103.096 44.221C103.096 46.6707 104.197 48.3358 106.178 48.3358ZM106.178 50.8081C102.269 50.8081 99.9185 48.2088 99.9185 44.2182C99.9185 40.2276 102.238 37.6115 106.178 37.6115C110.117 37.6115 112.443 40.2389 112.443 44.2182C112.443 47.9746 110.299 50.8081 106.178 50.8081Z" fill="#C8C8C8"/>
</g>
<defs>
<clipPath id="clip0_437_25771">
<rect width="134" height="24" fill="white" transform="translate(0 27)"/>
</clipPath>
</defs>
</svg>
